<svg width="134" height="26" viewBox="0 0 134 26" fill="none" xmlns="http://www.w3.org/2000/svg">
<path d="M19.47 9.62384C19.86 9.96384 20.45 10.0738 20.9 9.79384C21.35 9.51384 21.49 8.95384 21.36 8.46384C21.23 7.98384 20.81 7.63384 20.31 7.59384C20.08 7.57384 19.82 7.63384 19.63 7.77384C19.54 7.83384 19.46 7.90384 19.4 7.99384C19.4 8.00384 19.4 8.01384 19.38 8.02384C19.33 8.05384 19.29 8.09384 19.25 8.14384C19.08 8.40384 19.02 8.70384 19.09 9.00384C19.14 9.23384 19.28 9.46384 19.46 9.62384H19.47ZM19.79 8.90384V8.84384L19.82 8.76384C19.82 8.76384 19.83 8.71384 19.84 8.69384C19.84 8.69384 19.86 8.65384 19.86 8.64384C19.86 8.64384 19.89 8.60384 19.9 8.58384C19.96 8.53384 20.01 8.47384 20.06 8.42384H20.07C20.07 8.42384 20.09 8.40384 20.1 8.39384C20.12 8.39384 20.15 8.38384 20.17 8.37384H20.19C20.19 8.37384 20.26 8.37384 20.29 8.37384C20.3 8.37384 20.29 8.37384 20.3 8.37384H20.31C20.31 8.37384 20.38 8.39384 20.41 8.40384C20.42 8.40384 20.44 8.40384 20.45 8.41384C20.48 8.42384 20.51 8.44384 20.54 8.46384C20.56 8.46384 20.57 8.48384 20.58 8.49384L20.6 8.51384C20.6 8.51384 20.57 8.48384 20.56 8.48384C20.59 8.51384 20.64 8.53384 20.67 8.56384C20.67 8.56384 20.6 8.50384 20.63 8.53384L20.65 8.55384C20.65 8.55384 20.71 8.61384 20.74 8.64384L20.76 8.66384V8.68384C20.76 8.68384 20.82 8.77384 20.85 8.81384C20.85 8.81384 20.86 8.87384 20.87 8.89384V8.92384C20.87 8.92384 20.88 8.97384 20.88 8.99384C20.88 9.01384 20.88 9.03384 20.88 9.05384C20.88 9.06384 20.88 9.09384 20.88 9.09384C20.88 9.13384 20.86 9.16384 20.85 9.20384V9.22384C20.85 9.22384 20.82 9.26384 20.81 9.28384C20.81 9.29384 20.78 9.32384 20.81 9.29384C20.79 9.31384 20.77 9.33384 20.75 9.35384H20.74V9.37384C20.74 9.37384 20.69 9.39384 20.67 9.41384C20.65 9.42384 20.63 9.43384 20.61 9.44384C20.65 9.42384 20.57 9.45384 20.56 9.46384C20.54 9.46384 20.51 9.47384 20.49 9.48384C20.48 9.48384 20.41 9.49384 20.44 9.48384C20.46 9.48384 20.4 9.48384 20.39 9.48384C20.36 9.48384 20.34 9.48384 20.31 9.48384C20.3 9.48384 20.22 9.47384 20.28 9.48384C20.26 9.48384 20.24 9.48384 20.22 9.47384C20.18 9.47384 20.14 9.45384 20.1 9.43384H20.07C20.07 9.43384 20.03 9.40384 20.02 9.39384L20 9.37384C20 9.37384 19.97 9.34384 19.95 9.32384C19.94 9.31384 19.92 9.29384 19.91 9.27384V9.25384C19.91 9.25384 19.86 9.17384 19.83 9.13384V9.11384C19.83 9.11384 19.81 9.07384 19.8 9.04384C19.8 9.02384 19.8 9.00384 19.79 8.99384C19.79 8.99384 19.79 8.99384 19.79 9.01384C19.79 9.01384 19.79 8.99384 19.79 8.98384V8.95384C19.79 8.93384 19.79 8.91384 19.79 8.89384V8.90384Z" fill="#6E5858"/>
<path d="M22.85 8.08383C23.15 8.29383 23.56 8.31383 23.9 8.22383C24.28 8.11383 24.63 7.80383 24.69 7.40383C24.73 7.14383 24.72 6.85383 24.61 6.62383C24.55 6.49383 24.46 6.36383 24.35 6.26383C24.18 6.12383 23.99 6.06383 23.77 6.04383C23.43 6.01383 23.1 6.15383 22.85 6.37383C22.72 6.48383 22.63 6.63383 22.57 6.79383C22.54 6.88383 22.53 6.98383 22.53 7.08383C22.45 7.45383 22.51 7.84383 22.85 8.07383V8.08383ZM23.02 7.43383C23.02 7.43383 23.02 7.39383 23.02 7.37383C23.04 7.34383 23.06 7.30383 23.06 7.26383C23.06 7.23383 23.08 7.21383 23.06 7.26383C23.06 7.25383 23.06 7.23383 23.06 7.22383C23.06 7.20383 23.07 7.17383 23.08 7.15383V7.11383L23.11 7.08383C23.11 7.08383 23.12 7.05383 23.13 7.04383C23.13 7.05383 23.13 7.04383 23.13 7.05383C23.14 7.03383 23.15 7.01383 23.17 6.98383C23.17 6.98383 23.2 6.94383 23.21 6.93383L23.23 6.91383C23.23 6.91383 23.3 6.87383 23.34 6.85383C23.34 6.85383 23.4 6.83383 23.43 6.82383C23.46 6.82383 23.48 6.82383 23.51 6.81383H23.5C23.5 6.81383 23.55 6.81383 23.57 6.81383H23.65L23.68 6.83383C23.68 6.83383 23.68 6.82383 23.69 6.83383H23.71C23.71 6.83383 23.74 6.85383 23.75 6.85383H23.71C23.71 6.85383 23.75 6.85383 23.76 6.87383C23.8 6.90383 23.84 6.92383 23.88 6.94383C23.9 6.96383 23.92 6.98383 23.94 7.00383C23.96 7.02383 23.97 7.04383 23.94 7.00383C23.94 7.00383 24.06 7.15383 23.99 7.06383C23.94 7.00383 23.98 7.04383 23.99 7.06383C24.02 7.10383 24.05 7.14383 24.07 7.19383L24.09 7.22383V7.24383C24.09 7.24383 24.09 7.26383 24.09 7.27383V7.30383C24.09 7.30383 24.07 7.36383 24.06 7.39383L24.04 7.42383C24.04 7.42383 24.02 7.45383 24.01 7.46383C23.99 7.48383 23.97 7.50383 23.95 7.52383C23.94 7.53383 23.93 7.54383 23.91 7.55383C23.88 7.57383 23.86 7.58383 23.83 7.60383C23.8 7.62383 23.67 7.67383 23.79 7.63383C23.76 7.64383 23.72 7.66383 23.68 7.68383H23.69C23.69 7.68383 23.62 7.70383 23.58 7.71383C23.55 7.71383 23.52 7.73383 23.49 7.73383H23.44C23.44 7.73383 23.38 7.73383 23.35 7.73383C23.33 7.73383 23.31 7.73383 23.29 7.73383C23.29 7.73383 23.24 7.72383 23.21 7.71383C23.21 7.71383 23.18 7.70383 23.17 7.69383C23.16 7.69383 23.14 7.67383 23.13 7.66383C23.13 7.66383 23.09 7.62383 23.07 7.60383H23.06C23.06 7.60383 23.04 7.56383 23.04 7.54383C23.04 7.52383 23.03 7.51383 23.02 7.49383C23.02 7.47383 23.02 7.45383 23.01 7.43383V7.46383C23.01 7.46383 23.01 7.43383 23.01 7.42383L23.02 7.43383Z" fill="#6E5858"/>
<path d="M27.41 4.97383C27.34 4.94383 27.34 4.95383 27.41 4.97383V4.97383Z" fill="#6E5858"/>
<path d="M26.42 6.63388C26.65 6.85388 26.98 6.92388 27.29 6.85388C27.55 6.79388 27.83 6.63388 27.97 6.39388C28 6.33388 28.03 6.26388 28.04 6.19388C28.04 6.15388 28.05 6.11388 28.05 6.08388C28.05 6.08388 28.05 6.08388 28.05 6.07388C28.05 6.07388 28.05 6.00388 28.06 5.97388C28.06 5.88388 28.06 5.80388 28.04 5.71388C28.03 5.63388 28 5.56388 27.96 5.49388C27.92 5.40388 27.88 5.33388 27.82 5.25388C27.75 5.18388 27.67 5.11388 27.59 5.06388C27.56 5.04388 27.52 5.02388 27.49 5.00388C27.46 4.99388 27.44 4.98388 27.41 4.96388C27.38 4.94388 27.34 4.93388 27.3 4.92388C27.08 4.86388 26.81 4.86388 26.6 4.97388C26.44 5.05388 26.27 5.21388 26.19 5.37388C26.11 5.53388 26.03 5.75388 26.04 5.93388C26.04 6.03388 26.1 6.11388 26.18 6.16388C26.21 6.33388 26.28 6.49388 26.41 6.62388L26.42 6.63388ZM26.71 5.94388C26.71 5.94388 26.74 5.91388 26.76 5.89388C26.8 5.86388 26.84 5.82388 26.87 5.79388C26.87 5.79388 26.89 5.77388 26.91 5.76388L26.94 5.74388C26.94 5.74388 26.96 5.73388 26.97 5.72388L27.01 5.70388C27.01 5.70388 27.05 5.69388 27.07 5.68388H27.1C27.16 5.68388 27.21 5.68388 27.27 5.68388H27.3C27.3 5.68388 27.37 5.70388 27.4 5.71388H27.42C27.42 5.71388 27.51 5.76388 27.55 5.78388C27.55 5.78388 27.57 5.79388 27.58 5.80388C27.6 5.81388 27.61 5.83388 27.62 5.84388L27.65 5.87388C27.66 5.88388 27.67 5.90388 27.68 5.92388C27.69 5.94388 27.71 5.97388 27.72 5.99388V6.01388C27.72 6.01388 27.74 6.04388 27.74 6.05388C27.74 6.05388 27.74 6.13388 27.74 6.08388C27.74 6.10388 27.74 6.13388 27.72 6.15388C27.72 6.16388 27.72 6.17388 27.71 6.19388C27.71 6.19388 27.68 6.25388 27.67 6.27388V6.29388L27.64 6.31388C27.64 6.31388 27.6 6.35388 27.58 6.36388L27.55 6.38388C27.55 6.38388 27.5 6.41388 27.48 6.42388C27.44 6.43388 27.46 6.42388 27.48 6.42388C27.47 6.42388 27.45 6.43388 27.44 6.43388C27.41 6.43388 27.38 6.44388 27.36 6.45388H27.31C27.25 6.46388 27.2 6.46388 27.14 6.45388H27.1C27.1 6.45388 27.04 6.43388 27.02 6.42388H26.98C26.98 6.42388 26.93 6.38388 26.91 6.37388L26.88 6.35388C26.88 6.35388 26.84 6.31388 26.82 6.29388V6.26388C26.82 6.26388 26.79 6.23388 26.78 6.22388C26.76 6.15388 26.74 6.08388 26.73 6.02388C26.73 6.02388 26.73 5.97388 26.73 5.95388C26.73 5.93388 26.73 5.92388 26.73 5.90388L26.71 5.94388Z" fill="#6E5858"/>
<path d="M133.04 6.19385C132.03 1.80385 126.98 -1.58615 122.7 0.773851C119.34 2.63385 118.03 7.92385 121.55 10.3339C123.26 11.5039 125.77 11.6639 127.23 10.0139C128.7 8.36385 127.99 6.25385 126.25 5.16385C125.74 4.84385 125.33 5.61385 125.79 5.94385C126.69 6.60385 127.36 7.67385 126.71 8.74385C125.53 10.6839 122.53 9.99385 121.39 8.39385C120.27 6.82385 120.69 4.63385 121.75 3.15385C123.14 1.23385 125.78 0.443851 127.98 1.33385C130.34 2.29385 131.9 4.64385 132.09 7.15385C132.48 12.3939 127.72 15.8738 122.9 16.0539C118.46 16.2239 114.41 13.9639 110.66 11.8539C106.97 9.77385 103.11 7.52385 98.81 7.09385C96.85 6.90385 94.69 7.07385 92.9 7.93385C92.21 8.26385 91.56 8.67385 90.94 9.15385C90.77 9.09385 90.6 9.03385 90.43 8.98385C88.38 8.38385 86.18 8.44385 84.07 8.66385C81.78 8.90385 79.54 9.34385 77.41 10.2639C72.83 12.2439 68.9 15.9139 66.65 20.3839C64.39 15.9139 60.47 12.2439 55.89 10.2639C53.77 9.34385 51.52 8.90385 49.23 8.66385C47.13 8.44385 44.92 8.38385 42.87 8.98385C42.7 9.03385 42.53 9.09385 42.36 9.15385C41.75 8.67385 41.09 8.26385 40.4 7.93385C38.61 7.07385 36.45 6.90385 34.49 7.09385C30.19 7.52385 26.33 9.77385 22.64 11.8539C18.89 13.9639 14.84 16.2239 10.4 16.0539C5.58 15.8839 0.809997 12.4039 1.2 7.16385C1.39 4.65385 2.95 2.30385 5.31 1.34385C7.51 0.443851 10.15 1.24385 11.54 3.16385C12.61 4.64385 13.02 6.83385 11.9 8.40385C10.76 10.0139 7.76 10.6939 6.58 8.75385C5.92 7.68385 6.59 6.60385 7.5 5.95385C7.96 5.61385 7.55 4.85385 7.04 5.17385C5.3 6.25385 4.6 8.37385 6.06 10.0239C7.52 11.6739 10.04 11.5039 11.74 10.3439C15.26 7.93385 13.95 2.64385 10.59 0.783851C6.31 -1.59615 1.26 1.80385 0.249997 6.19385C-0.290003 8.53385 0.0199969 10.9538 1.37 12.9739C2.71 14.9739 4.85 16.3638 7.17 16.9639C16.59 19.4039 23.46 10.9539 31.83 8.65385C33.97 8.06385 36.2 7.92385 38.37 8.43385C39.36 8.66385 40.28 9.11385 41.12 9.70385C39.9 10.3539 38.9 11.2939 38.34 12.6539C37.84 13.8639 37.51 15.2339 38.01 16.5039C38.44 17.5939 39.4 18.4239 40.45 18.8939C42.49 19.7938 44.75 19.0138 45.71 16.9538C46.52 15.2338 45.9 13.3539 44.89 11.8639C44.49 11.2839 44.03 10.7239 43.52 10.2039C45.66 9.66385 48.15 9.81385 50.18 10.0939C52.75 10.4539 55.16 11.1839 57.4 12.5139C59.64 13.8539 61.67 15.5739 63.29 17.6139C59.65 14.8639 54.14 14.1038 51.91 18.7038C50.67 21.2738 52.13 24.0039 54.75 24.8439C55.8 25.1839 57.06 25.1938 57.99 24.5438C59.09 23.7738 59.37 22.4139 59.04 21.1639C58.7 19.8939 57.63 18.8339 56.25 18.9139C54.8 19.0039 54.24 20.3738 54.42 21.6439C54.48 22.0639 55.08 21.9139 55.12 21.5539C55.19 20.8039 55.52 19.7738 56.48 19.9538C57.34 20.1138 57.73 21.0438 57.81 21.8239C57.89 22.6439 57.68 23.4039 56.94 23.8339C56.17 24.2839 55.2 24.2939 54.37 24.0139C53.29 23.6539 52.39 22.7239 52.11 21.6139C51.84 20.5139 52.26 19.3239 52.87 18.4139C54.31 16.2938 56.76 15.8939 59.09 16.5539C61.67 17.2838 64.45 19.0839 65.47 21.6639C65.55 21.8639 65.73 21.9639 65.9 21.9739V22.0039C66.05 22.3339 66.35 22.4739 66.64 22.4538C66.93 22.4639 67.24 22.3339 67.37 22.0039V21.9739C67.56 21.9639 67.73 21.8639 67.81 21.6639C68.83 19.0839 71.62 17.2938 74.19 16.5539C76.52 15.8939 78.97 16.2938 80.41 18.4139C81.03 19.3239 81.45 20.5139 81.17 21.6139C80.89 22.7239 79.99 23.6539 78.91 24.0139C78.08 24.2839 77.1 24.2839 76.34 23.8339C75.6 23.4039 75.39 22.6439 75.47 21.8239C75.54 21.0438 75.93 20.1238 76.8 19.9538C77.76 19.7738 78.09 20.7938 78.16 21.5539C78.19 21.9239 78.8 22.0639 78.86 21.6439C79.04 20.3738 78.47 18.9939 77.03 18.9139C75.65 18.8339 74.58 19.8939 74.24 21.1639C73.91 22.4139 74.19 23.7738 75.29 24.5438C76.22 25.1938 77.48 25.1839 78.53 24.8439C81.15 23.9939 82.62 21.2638 81.37 18.7038C79.14 14.1038 73.63 14.8739 69.99 17.6139C71.61 15.5639 73.64 13.8439 75.88 12.5139C78.12 11.1739 80.53 10.4539 83.1 10.0939C85.14 9.80385 87.63 9.65385 89.76 10.2039C89.25 10.7239 88.79 11.2839 88.39 11.8639C87.37 13.3539 86.76 15.2338 87.57 16.9538C88.54 19.0138 90.8 19.7938 92.83 18.8939C93.89 18.4239 94.85 17.5939 95.27 16.5039C95.77 15.2339 95.44 13.8639 94.94 12.6539C94.38 11.2939 93.38 10.3539 92.16 9.70385C92.99 9.11385 93.91 8.67385 94.91 8.43385C97.08 7.92385 99.31 8.06385 101.45 8.65385C109.82 10.9539 116.7 19.4039 126.11 16.9639C128.43 16.3638 130.57 14.9739 131.91 12.9739C133.26 10.9639 133.57 8.53385 133.03 6.19385H133.04ZM44.44 16.9939C43.66 18.1439 42.32 18.7439 40.99 18.2139C39.41 17.5938 38.59 16.0438 39.02 14.4039C39.52 12.4639 40.74 11.3039 42.28 10.6339C42.65 10.9839 43 11.3539 43.32 11.7439C44.45 13.1139 45.61 15.2938 44.45 16.9839L44.44 16.9939ZM94.28 14.4039C94.7 16.0438 93.88 17.5938 92.31 18.2139C90.97 18.7339 89.64 18.1339 88.86 16.9939C87.7 15.3039 88.86 13.1239 89.99 11.7539C90.31 11.3639 90.66 10.9939 91.03 10.6439C92.57 11.3139 93.78 12.4739 94.29 14.4139L94.28 14.4039Z" fill="#6E5858"/>
<path d="M112.39 9.79384C112.84 10.0738 113.43 9.96384 113.82 9.62384C114 9.46384 114.14 9.24384 114.19 9.00384C114.26 8.70384 114.19 8.40384 114.03 8.14384C114 8.09384 113.95 8.05384 113.9 8.02384C113.9 8.01384 113.9 8.00384 113.88 7.99384C113.82 7.90384 113.74 7.83384 113.65 7.77384C113.46 7.63384 113.2 7.57384 112.97 7.59384C112.48 7.64384 112.06 7.99384 111.92 8.46384C111.78 8.95384 111.92 9.51384 112.38 9.79384H112.39ZM112.39 8.91384V8.88384C112.39 8.88384 112.41 8.84384 112.42 8.82384C112.44 8.76384 112.47 8.72384 112.49 8.68384V8.66384L112.52 8.64384C112.52 8.64384 112.58 8.58384 112.61 8.55384L112.63 8.53384C112.63 8.53384 112.58 8.57384 112.59 8.56384C112.61 8.52384 112.67 8.51384 112.7 8.48384C112.7 8.48384 112.63 8.53384 112.66 8.51384L112.68 8.49384C112.68 8.49384 112.71 8.47384 112.72 8.46384C112.75 8.44384 112.78 8.43384 112.81 8.41384H112.85C112.85 8.41384 112.92 8.38384 112.95 8.37384H112.96C112.96 8.37384 112.96 8.37384 112.97 8.37384C113 8.37384 113.04 8.37384 113.07 8.37384H113.09C113.09 8.37384 113.14 8.38384 113.16 8.39384C113.17 8.39384 113.18 8.40384 113.19 8.41384H113.2C113.25 8.47384 113.31 8.52384 113.36 8.57384C113.36 8.57384 113.38 8.61384 113.4 8.62384C113.4 8.62384 113.42 8.66384 113.42 8.67384C113.42 8.67384 113.43 8.73384 113.44 8.75384L113.46 8.83384V8.89384C113.46 8.89384 113.46 8.93384 113.46 8.95384C113.46 8.95384 113.46 8.95384 113.46 8.97384C113.46 8.97384 113.46 9.00384 113.46 9.01384C113.46 8.99384 113.46 9.00384 113.46 8.99384C113.46 9.01384 113.46 9.03384 113.45 9.04384C113.45 9.06384 113.44 9.08384 113.43 9.11384V9.13384C113.43 9.13384 113.38 9.21384 113.35 9.25384H113.34V9.28384C113.34 9.28384 113.31 9.30384 113.3 9.32384C113.28 9.34384 113.27 9.35384 113.25 9.37384L113.23 9.39384C113.23 9.39384 113.19 9.41384 113.18 9.42384H113.15C113.15 9.42384 113.07 9.46384 113.03 9.47384C113.01 9.47384 112.99 9.47384 112.97 9.48384C113.03 9.47384 112.95 9.48384 112.94 9.48384C112.91 9.48384 112.89 9.48384 112.86 9.48384C112.85 9.48384 112.79 9.48384 112.81 9.48384C112.84 9.48384 112.77 9.48384 112.76 9.48384C112.74 9.48384 112.71 9.47384 112.69 9.46384C112.68 9.46384 112.6 9.43384 112.64 9.44384C112.62 9.44384 112.6 9.42384 112.58 9.41384C112.56 9.40384 112.54 9.39384 112.52 9.37384H112.51V9.35384C112.51 9.35384 112.46 9.31384 112.44 9.29384C112.46 9.32384 112.44 9.29384 112.44 9.28384C112.43 9.26384 112.42 9.24384 112.41 9.22384V9.20384C112.41 9.20384 112.39 9.13384 112.38 9.09384C112.38 9.09384 112.38 9.06384 112.38 9.05384C112.38 9.03384 112.38 9.01384 112.38 8.99384C112.38 8.97384 112.38 8.94384 112.38 8.92384L112.39 8.91384Z" fill="#6E5858"/>
<path d="M109.21 7.22386C109.22 7.19386 109.25 7.14386 109.21 7.22386V7.22386Z" fill="#6E5858"/>
<path d="M109.39 8.22384C109.73 8.32384 110.14 8.29384 110.44 8.08384C110.78 7.85384 110.84 7.46384 110.76 7.09384C110.76 6.99384 110.76 6.89384 110.72 6.80384C110.66 6.64384 110.57 6.49384 110.44 6.38384C110.19 6.16384 109.85 6.02384 109.52 6.05384C109.3 6.07384 109.11 6.12384 108.94 6.27384C108.83 6.37384 108.74 6.49384 108.68 6.63384C108.57 6.87384 108.56 7.16384 108.6 7.41384C108.66 7.81384 109.01 8.12384 109.39 8.23384V8.22384ZM109.21 7.23384L109.23 7.19384C109.23 7.19384 109.28 7.11384 109.31 7.06384C109.31 7.05384 109.35 7.01384 109.31 7.06384C109.24 7.15384 109.35 7.01384 109.36 7.00384C109.33 7.04384 109.34 7.02384 109.36 7.00384C109.36 7.00384 109.4 6.96384 109.42 6.94384C109.46 6.92384 109.5 6.89384 109.54 6.87384C109.56 6.86384 109.58 6.85384 109.59 6.84384H109.55C109.55 6.84384 109.58 6.84384 109.59 6.84384H109.61C109.61 6.84384 109.65 6.82384 109.62 6.84384H109.65L109.68 6.82384H109.72C109.72 6.82384 109.77 6.82384 109.79 6.82384H109.78C109.78 6.82384 109.83 6.82384 109.86 6.83384C109.89 6.83384 109.92 6.85384 109.95 6.86384C109.95 6.86384 110.02 6.91384 110.06 6.93384L110.08 6.95384C110.08 6.95384 110.11 6.98384 110.12 7.00384C110.12 7.00384 110.15 7.05384 110.16 7.07384C110.16 7.07384 110.16 7.07384 110.16 7.06384C110.16 7.07384 110.17 7.09384 110.18 7.10384V7.13384L110.21 7.17384C110.21 7.17384 110.22 7.22384 110.23 7.24384C110.23 7.25384 110.23 7.27384 110.23 7.28384C110.21 7.22384 110.23 7.24384 110.23 7.28384C110.23 7.32384 110.25 7.36384 110.27 7.39384C110.27 7.41384 110.27 7.43384 110.27 7.45384C110.27 7.46384 110.27 7.48384 110.27 7.49384V7.46384C110.27 7.46384 110.27 7.50384 110.27 7.52384C110.27 7.54384 110.26 7.55384 110.25 7.57384C110.25 7.58384 110.23 7.60384 110.23 7.61384H110.22C110.22 7.61384 110.18 7.66384 110.16 7.68384C110.16 7.68384 110.13 7.70384 110.12 7.71384C110.11 7.71384 110.09 7.72384 110.08 7.73384C110.08 7.73384 110.03 7.74384 110 7.75384C110 7.75384 109.96 7.75384 109.94 7.75384C109.91 7.75384 109.88 7.75384 109.85 7.75384H109.8C109.8 7.75384 109.74 7.73384 109.71 7.72384C109.67 7.72384 109.64 7.70384 109.6 7.69384H109.61C109.61 7.69384 109.53 7.66384 109.5 7.65384C109.62 7.70384 109.49 7.65384 109.46 7.62384C109.43 7.60384 109.41 7.59384 109.38 7.57384C109.37 7.56384 109.36 7.55384 109.34 7.54384C109.32 7.52384 109.3 7.50384 109.28 7.48384C109.28 7.47384 109.26 7.45384 109.25 7.44384L109.23 7.41384C109.23 7.41384 109.21 7.35384 109.2 7.32384V7.29384C109.2 7.29384 109.2 7.26384 109.2 7.25384L109.21 7.23384Z" fill="#6E5858"/>
<path d="M109.58 7.67384C109.51 7.63384 109.55 7.67384 109.58 7.67384V7.67384Z" fill="#6E5858"/>
<path d="M105.87 4.98386C105.93 4.95386 105.93 4.95386 105.87 4.98386V4.98386Z" fill="#6E5858"/>
<path d="M105.24 6.07383C105.24 6.07383 105.24 6.07383 105.24 6.08383C105.24 6.12383 105.24 6.16383 105.25 6.19383C105.26 6.26383 105.29 6.33383 105.32 6.39383C105.45 6.63383 105.73 6.79383 106 6.85383C106.31 6.92383 106.64 6.85383 106.87 6.63383C107 6.50383 107.07 6.34383 107.1 6.17383C107.18 6.12383 107.23 6.03383 107.24 5.94383C107.24 5.76383 107.16 5.54383 107.09 5.38383C107.01 5.22383 106.84 5.06383 106.68 4.98383C106.47 4.87383 106.21 4.87383 105.98 4.93383C105.94 4.93383 105.91 4.95383 105.87 4.97383C105.84 4.98383 105.82 4.99383 105.79 5.01383C105.75 5.03383 105.72 5.05383 105.69 5.07383C105.61 5.13383 105.52 5.19383 105.46 5.26383C105.39 5.33383 105.36 5.41383 105.32 5.50383C105.29 5.57383 105.26 5.64383 105.24 5.72383C105.22 5.80383 105.21 5.89383 105.22 5.98383C105.22 6.01383 105.22 6.04383 105.23 6.07383H105.24ZM105.53 6.07383C105.53 6.07383 105.53 6.04383 105.54 6.03383V6.01383C105.54 6.01383 105.57 5.96383 105.59 5.94383C105.59 5.92383 105.61 5.91383 105.62 5.89383C105.6 5.91383 105.63 5.87383 105.62 5.89383L105.65 5.86383C105.65 5.86383 105.68 5.83383 105.69 5.82383C105.7 5.82383 105.71 5.81383 105.72 5.80383C105.72 5.80383 105.81 5.76383 105.85 5.74383H105.87C105.87 5.74383 105.94 5.71383 105.97 5.70383H106C106.06 5.70383 106.11 5.69383 106.17 5.70383H106.2C106.2 5.70383 106.24 5.72383 106.26 5.73383L106.3 5.75383C106.3 5.75383 106.32 5.76383 106.33 5.77383L106.36 5.79383L106.4 5.82383C106.4 5.82383 106.48 5.89383 106.51 5.92383C106.53 5.93383 106.54 5.95383 106.56 5.97383C106.56 5.99383 106.56 6.00383 106.56 6.02383C106.56 6.04383 106.56 6.06383 106.56 6.09383C106.54 6.16383 106.53 6.23383 106.51 6.29383C106.51 6.29383 106.49 6.33383 106.49 6.34383V6.36383H106.47C106.47 6.36383 106.43 6.41383 106.41 6.43383L106.38 6.45383C106.38 6.45383 106.33 6.48383 106.31 6.49383H106.27C106.27 6.49383 106.22 6.52383 106.19 6.52383H106.15C106.09 6.53383 106.04 6.53383 105.98 6.52383H105.93C105.93 6.52383 105.87 6.50383 105.85 6.49383C105.83 6.49383 105.82 6.49383 105.81 6.48383C105.82 6.48383 105.84 6.48383 105.81 6.48383C105.79 6.47383 105.76 6.45383 105.74 6.44383L105.71 6.42383C105.69 6.40383 105.67 6.39383 105.65 6.37383L105.63 6.35383V6.33383C105.63 6.33383 105.59 6.28383 105.58 6.26383C105.58 6.26383 105.58 6.22383 105.57 6.21383C105.57 6.19383 105.56 6.16383 105.55 6.14383C105.55 6.19383 105.55 6.14383 105.55 6.12383L105.53 6.07383Z" fill="#6E5858"/>
<path d="M68.62 5.33384C68.03 4.08384 66.69 2.85384 65.5 4.17384C64.43 5.35384 63.96 7.18384 63.89 8.72384C63.77 11.1838 65 13.2638 66.38 15.1938C66.53 15.4038 66.75 15.4638 66.96 15.4338C67.15 15.5938 67.45 15.6238 67.68 15.4338C68.35 14.8538 68.62 14.1238 68.86 13.2938C69.13 12.3838 69.3 11.4438 69.38 10.5038C69.53 8.78384 69.38 6.92384 68.62 5.34384V5.33384ZM68.06 10.2138C67.95 11.0538 67.77 11.9038 67.52 12.7138C67.37 13.2038 67.19 13.6738 67.02 14.1438C66.11 12.8438 65.29 11.4638 64.99 9.88384C64.71 8.38384 64.93 6.70384 65.6 5.33384C65.79 4.94384 66.15 4.22384 66.68 4.27384C67.29 4.32384 67.68 5.29384 67.85 5.78384C68.33 7.18384 68.24 8.76384 68.05 10.2138H68.06Z" fill="#6E5858"/>
</svg>
